<svg enable-background="new 0 0 512 512" viewBox="0 0 512 512" xmlns="http://www.w3.org/2000/svg"><path d="m507.58 195.042c-1.814-5.797-7.983-9.028-13.784-7.211l-9.865 3.088c-12.256-5.924-69.997-34.516-116.526-69.161-52.022-38.738-100.966-93.2-101.454-93.746-.289-.323-.951-.619-.951-.9v-4.618c0-6.075-4.926-11-11-11-6.075 0-11 4.925-11 11v4.991c0 .173-.316.341-.483.528-.487.545-49.314 54.964-101.395 93.744-45.754 34.069-102.454 62.336-115.908 68.867l-8.877-2.79c-5.8-1.821-11.968 1.403-13.789 7.198-1.82 5.796 1.404 11.97 7.199 13.791l10.651 3.345c8.141 14.667 37.413 68.957 54.983 121.891 17.42 52.48 26.431 113.018 28.764 130.184-.08.24-.15.483-.213.73l-7.275 10.118c-3.546 4.933-2.423 11.807 2.51 15.353 1.943 1.397 4.188 2.07 6.412 2.07 3.42 0 6.791-1.591 8.94-4.579l7.572-10.532c17.684-3.449 77.193-14.23 131.981-14.667 54.203-.434 113.342 9.214 131.689 12.47l9.109 12.655c2.149 2.986 5.519 4.575 8.937 4.575 2.227 0 4.473-.674 6.417-2.073 4.931-3.549 6.051-10.424 2.502-15.354l-3.357-4.664c.109-.439.201-.885.256-1.345.087-.727 8.953-73.385 29.386-134.942 18.29-55.104 49.325-111.787 55.894-123.523l5.461-1.709c5.8-1.815 9.029-7.987 7.214-13.784zm-153.352-55.64c34.872 25.966 74.873 48.181 99.48 60.97l-38.652 12.101c-.483-.088-.963-.148-1.448-.171-.113-.059-.217-.125-.333-.18-.446-.212-45.023-21.517-79.95-47.783s-67.804-63.181-68.131-63.551c-.05-.056-.195-.104-.195-.159v-41.385c19.001 19.672 52.953 53.146 89.229 80.158zm-207.041 166.964c-7.795-23.076-18.489-46.063-26.98-62.849l31.982 10.046c4.125 7.459 14.721 27.406 21.3 46.884 6.944 20.556 10.664 44.372 11.686 51.538l-20.046 27.88c-3.281-18.91-9.089-47.29-17.942-73.499zm47.144-12.961c-3.644-10.789-8.325-21.54-12.641-30.576l55.135 17.318-33.676 46.836c-2.073-10.151-4.973-22.194-8.818-33.578zm70.669-95.154c8 7.565 17.628 16.594 27.971 24.371 9.617 7.233 20.141 13.772 29.138 18.929l-57.109 17.869zm-22 60.801-54.882-17.251c9.091-5.194 19.802-11.831 29.574-19.179 9.212-6.928 18.308-14.849 25.308-21.843zm11.646 33.998 33.635 46.728c-9.655-1.081-20.808-1.944-31.684-1.909-12.619.057-25.586 1.336-36.153 2.749zm60.989.355c-3.932 11.641-6.878 23.977-8.96 34.269l-34.202-47.515 55.881-17.491c-4.338 9.07-9.053 19.883-12.719 30.737zm35.952-61.063c-6.37-3.155-27.89-14.169-45.355-27.303-20.582-15.479-40.054-37.314-40.246-37.531-.299-.338-.986-.645-.986-.937v-33.842c13 13.698 33.651 33.089 55.065 49.193 22.162 16.666 47.376 31.112 64.302 40.154zm-108.587-63.008c-5 5.569-21.348 22.798-38.511 35.705-17.85 13.424-40.022 24.683-45.775 27.52l-32.726-10.282c16.927-9.027 42.299-23.565 64.624-40.354 20.071-15.094 39.388-33.074 52.388-46.55zm-40.732 196.563c2.711-.549 29.867-5.918 54.429-6.029 19.093-.073 39.841 3.01 49.377 4.626l20.084 27.901c-18.565-2.698-45.018-5.705-70.687-5.705-.486 0-.974.001-1.459.003-25.696.116-52.315 3.325-71.159 6.208zm142.455 14.635-20.031-27.829c.854-6.136 4.589-30.947 11.787-52.257 6.6-19.54 17.296-39.644 21.372-47.011l31.952-10.001c-8.498 16.793-19.215 39.818-27.023 62.933-8.957 26.516-14.799 55.261-18.057 74.165zm-190.482-241.13c36.028-26.827 69.759-60.028 88.759-79.752v43.842c-8 9.006-36.123 38.676-65.605 60.847-34.927 26.266-79.486 47.57-79.932 47.783-.115.055-.21.121-.322.179-.773-.021-1.545.04-2.317.186l-39.483-12.397c24.649-12.833 64.285-34.913 98.9-60.688zm-103.793 82.204 39.902 12.533c7.042 12.751 24.903 46.434 35.993 79.268 13.985 41.402 20.232 90.414 20.294 90.904.043.347.103.688.177 1.022l-24.193 33.648c-4.488-27.516-12.946-71.445-26.359-111.853-13.432-40.468-32.958-80.793-45.814-105.522zm203.45 219.129c-42.03.336-85.756 6.349-113.319 10.956l23.95-33.309c11.219-2.164 52.065-9.521 89.579-9.689.446-.002.891-.003 1.337-.003 37.777 0 78.703 7.105 88.915 8.994l23.194 32.222c-27.619-4.171-71.524-9.509-113.656-9.171zm164.236-113.607c-14.375 43.307-23.06 90.659-27.264 117.514l-27.875-38.726c.146-.521.265-1.054.334-1.607.062-.489 6.285-49.431 20.294-90.902 11.103-32.873 28.993-66.597 36.018-79.314l45.167-14.138c-12.832 24.559-32.939 65.792-46.674 107.173z"/></svg>