<?xml version="1.0" encoding="UTF-8"?>
<svg xmlns="http://www.w3.org/2000/svg" xmlns:xlink="http://www.w3.org/1999/xlink" width="512px" height="512px" viewBox="0 0 512 512" version="1.1">
<g id="surface1">
<path style=" stroke:none;fill-rule:nonzero;fill:rgb(0%,0%,0%);fill-opacity:1;" d="M 500.710938 401.601562 C 503.03125 410.042969 498.800781 419 491.269531 420.699219 L 477.625 425.410156 C 470.089844 428.007812 462.097656 423.269531 459.777344 414.820312 L 438.398438 338 L 367.476562 306.199219 L 415.003906 368.351562 C 419.519531 374.253906 421.203125 382.238281 419.519531 389.789062 L 394.425781 499.890625 C 392.515625 508.460938 384.765625 513.671875 377.121094 511.53125 L 363.269531 507.65625 C 355.617188 505.515625 350.96875 496.828125 352.878906 488.257812 L 375.28125 390.238281 L 341.050781 345.46875 C 341.183594 347.671875 341.636719 349.773438 341.636719 352.015625 C 341.636719 405.035156 303.28125 448.015625 255.976562 448.015625 C 208.667969 448.015625 170.3125 405 170.3125 352 C 170.3125 349.757812 170.765625 347.660156 170.898438 345.457031 L 136.667969 390.21875 L 159.070312 488.238281 C 160.980469 496.8125 156.328125 505.496094 148.679688 507.636719 L 134.828125 511.511719 C 127.183594 513.652344 119.433594 508.4375 117.523438 499.871094 L 92.429688 389.769531 C 90.746094 382.226562 92.429688 374.238281 96.945312 368.328125 L 144.472656 306.179688 L 73.550781 337.980469 L 52.207031 415.71875 C 49.886719 424.167969 41.894531 428.910156 34.359375 426.308594 L 20.714844 421.601562 C 13.175781 419 8.953125 410.050781 11.265625 402.5 L 35.621094 313.8125 C 37.523438 306.871094 42.128906 301.269531 48.144531 298.570312 L 141.246094 256 L 48.179688 214.269531 C 42.160156 211.601562 37.5625 205.101562 35.652344 199.101562 L 11.308594 110.398438 C 8.988281 101.957031 13.21875 93 20.746094 91.300781 L 34.390625 86.589844 C 41.929688 83.992188 49.921875 88.730469 52.238281 97.179688 L 73.582031 174.921875 L 144.507812 206.722656 L 96.976562 143.601562 C 92.445312 137.699219 90.753906 129.699219 92.445312 122.199219 L 117.539062 12.101562 C 119.449219 3.53125 127.199219 -1.679688 134.84375 0.460938 L 148.691406 4.332031 C 156.355469 6.492188 160.976562 15.179688 158.3125 23.761719 L 136.710938 121.800781 L 184.621094 184.398438 L 184.757812 159.960938 C 183.199219 123.398438 203.464844 91.769531 232.355469 80.429688 C 236.925781 78.636719 241.6875 82.644531 241.6875 88.070312 L 241.6875 112 L 270.238281 112 L 270.238281 88.089844 C 270.238281 82.648438 275.035156 78.648438 279.617188 80.449219 C 307.464844 91.390625 327.378906 121 327.378906 155.898438 C 327.378906 157.292969 327.21875 158.589844 327.15625 159.964844 L 327.378906 184.398438 L 375.296875 121.738281 L 352.898438 23.71875 C 350.984375 15.144531 355.640625 6.460938 363.289062 4.320312 L 377.136719 0.445312 C 384.785156 -1.695312 392.535156 3.519531 394.445312 12.085938 L 419.539062 122.1875 C 421.222656 129.730469 419.539062 137.71875 415.023438 143.628906 L 367.492188 205.777344 L 438.417969 173.976562 L 459.761719 96.238281 C 462.078125 87.789062 470.070312 83.046875 477.609375 85.648438 L 491.253906 90.355469 C 498.789062 92.957031 503.011719 101.90625 500.703125 109.457031 L 476.347656 198.144531 C 474.441406 205.085938 469.835938 210.6875 463.820312 213.386719 L 370.753906 256 L 463.820312 297.730469 C 469.824219 300.421875 474.417969 306.011719 476.328125 312.941406 Z M 500.710938 401.601562 "/>
</g>
</svg>
