<svg height="122.83399" viewBox="0 0 30.31081 32.499828" width="114.56054" xmlns="http://www.w3.org/2000/svg"><g transform="matrix(.26458333 0 0 .26458333 -77.942529 -177.00005)"><path d="m360.04883 687.87305v18.89843l32.73047 18.89844v-18.89844zm-65.46289 18.89843v18.89844l16.36523 9.44727v-18.89649zm49.0957 9.44922-16.36523 9.44922v56.69141l16.36523 9.44922v-37.79493l16.36719 9.44922v-18.89843l-16.36719-9.44922z" fill="#e55b2d"/><path d="m360.04883 687.87305-49.09766 28.34765v18.89649l32.73047-18.89649v18.89649l16.36719-9.44727zm49.09765 9.44922-16.36718 9.44921v18.89844l16.36718-9.44922zm-32.73242 37.79492-16.36523 9.44922v18.89843l16.36523-9.44922zm-16.36523 28.34765-16.36719-9.44922v37.79493l16.36719-9.44922z" fill="#ed8e24"/><path d="m360.04883 668.97656-65.46289 37.79492 16.36523 9.44922 49.09766-28.34765 32.73047 18.89843 16.36718-9.44921zm0 56.69336-16.36719 9.44727 16.36719 9.44922 16.36523-9.44922z" fill="#f8bf3c"/></g></svg>